name analog
datacolumns 19
datarows 28
range 0.8155 0.8290000000000001
endheader
time	ground_force_vx	ground_force_vy	ground_force_vz	ground_force_px	ground_force_py	ground_force_pz	l_ground_force_vx	l_ground_force_vy	l_ground_force_vz	l_ground_force_px	l_ground_force_py	l_ground_force_pz	ground_torque_x	ground_torque_y	ground_torque_z	l_ground_torque_x	l_ground_torque_y	l_ground_torque_z
0.8155	-0.0	-0.0	-0.0	-0.0	-0.0	-0.0	-3.178362846374512	-5.637429237365723	-793.2424926757812	-0.0	-0.0	-0.0	-0.0	-0.0	-0.0	251135.578125	-30269.517578125	-2498.017333984375
0.8160000000000001	-0.0	-0.0	-0.0	-0.0	-0.0	-0.0	-3.2861428260803223	-6.09036922454834	-794.3502197265625	-0.0	-0.0	-0.0	-0.0	-0.0	-0.0	250638.890625	-30459.671875	-2524.042236328125
0.8165	-0.0	-0.0	-0.0	-0.0	-0.0	-0.0	-2.584256649017334	-7.058006286621094	-792.9539184570312	-0.0	-0.0	-0.0	-0.0	-0.0	-0.0	249936.6875	-30590.6171875	-2496.7080078125
0.8170000000000001	-0.0	-0.0	-0.0	-0.0	-0.0	-0.0	-2.900094509124756	-8.021706581115723	-794.3507080078125	-0.0	-0.0	-0.0	-0.0	-0.0	-0.0	249259.1875	-30572.568359375	-2641.58544921875
0.8175	-0.0	-0.0	-0.0	-0.0	-0.0	-0.0	-2.66921615600586	-8.410204887390137	-792.92333984375	-0.0	-0.0	-0.0	-0.0	-0.0	-0.0	249193.328125	-30767.123046875	-2615.78955078125
0.8180000000000001	-0.0	-0.0	-0.0	-0.0	-0.0	-0.0	-2.133042573928833	-9.41869068145752	-792.9076538085938	-0.0	-0.0	-0.0	-0.0	-0.0	-0.0	248597.859375	-30681.822265625	-2727.672607421875
0.8185	-0.0	-0.0	-0.0	-0.0	-0.0	-0.0	-1.874949932098389	-9.189445495605469	-792.6215209960938	-0.0	-0.0	-0.0	-0.0	-0.0	-0.0	248564.171875	-30849.9765625	-2587.119384765625
0.8190000000000001	-0.0	-0.0	-0.0	-0.0	-0.0	-0.0	-1.41937255859375	-9.11324405670166	-791.8599243164062	-0.0	-0.0	-0.0	-0.0	-0.0	-0.0	247977.25	-31174.009765625	-2488.340087890625
0.8195	-0.0	-0.0	-0.0	-0.0	-0.0	-0.0	-0.5526787042617798	-9.261582374572754	-792.2410278320312	-0.0	-0.0	-0.0	-0.0	-0.0	-0.0	247646.59375	-31184.1640625	-2320.636474609375
0.8200000000000001	-0.0	-0.0	-0.0	-0.0	-0.0	-0.0	0.2291395664215088	-9.450420379638672	-792.44482421875	-0.0	-0.0	-0.0	-0.0	-0.0	-0.0	247251.859375	-31415.568359375	-2458.85498046875
0.8205	-0.0	-0.0	-0.0	-0.0	-0.0	-0.0	-0.4352583289146423	-9.618804931640623	-791.826904296875	-0.0	-0.0	-0.0	-0.0	-0.0	-0.0	246792.359375	-31230.5078125	-2599.318359375
0.8210000000000001	-0.0	-0.0	-0.0	-0.0	-0.0	-0.0	-0.8661814332008362	-8.739680290222168	-788.4667358398438	-0.0	-0.0	-0.0	-0.0	-0.0	-0.0	246291.5	-31310.5703125	-2726.32958984375
0.8215	-0.0	-0.0	-0.0	-0.0	-0.0	-0.0	-0.7265371680259705	-8.28546142578125	-789.1157836914062	-0.0	-0.0	-0.0	-0.0	-0.0	-0.0	245612.921875	-31305.388671875	-2645.5380859375
0.8220000000000001	-0.0	-0.0	-0.0	-0.0	-0.0	-0.0	-0.2661323547363281	-7.490417003631592	-784.959716796875	-0.0	-0.0	-0.0	-0.0	-0.0	-0.0	245232.75	-31123.142578125	-2637.927734375
0.8225	-0.0	-0.0	-0.0	-0.0	-0.0	-0.0	-0.5995370149612427	-6.535804748535156	-787.6016845703125	-0.0	-0.0	-0.0	-0.0	-0.0	-0.0	244217.078125	-31193.556640625	-2667.548583984375
0.8230000000000001	-0.0	-0.0	-0.0	-0.0	-0.0	-0.0	-0.9801342487335204	-6.115679740905762	-782.1845092773438	-0.0	-0.0	-0.0	-0.0	-0.0	-0.0	243840.796875	-31315.37890625	-2645.236083984375
0.8235	-0.0	-0.0	-0.0	-0.0	-0.0	-0.0	-0.5496752262115479	-5.590267181396484	-781.3671264648438	-0.0	-0.0	-0.0	-0.0	-0.0	-0.0	242758.140625	-30851.998046875	-2643.365966796875
0.8240000000000001	-0.0	-0.0	-0.0	-0.0	-0.0	-0.0	-1.082089900970459	-5.308043003082275	-779.37548828125	-0.0	-0.0	-0.0	-0.0	-0.0	-0.0	241892.765625	-30579.6875	-2704.4814453125
0.8245	-0.0	-0.0	-0.0	-0.0	-0.0	-0.0	-1.6145044565200806	-5.135882377624512	-776.81005859375	-0.0	-0.0	-0.0	-0.0	-0.0	-0.0	241145.484375	-30438.19140625	-2710.763671875
0.8250000000000001	-0.0	-0.0	-0.0	-0.0	-0.0	-0.0	-2.204404354095459	-4.773806571960449	-773.4409790039062	-0.0	-0.0	-0.0	-0.0	-0.0	-0.0	240380.34375	-30419.373046875	-2945.4794921875
0.8255	-0.0	-0.0	-0.0	-0.0	-0.0	-0.0	-1.947144627571106	-4.676576614379883	-772.9686889648438	-0.0	-0.0	-0.0	-0.0	-0.0	-0.0	239599.046875	-30742.615234375	-2792.494873046875
0.8260000000000001	-0.0	-0.0	-0.0	-0.0	-0.0	-0.0	-0.7232764959335327	-3.727551698684693	-768.6253051757812	-0.0	-0.0	-0.0	-0.0	-0.0	-0.0	238497.375	-30728.275390625	-2527.44921875
0.8265	-0.0	-0.0	-0.0	-0.0	-0.0	-0.0	0.0522776842117309	-2.937286376953125	-767.1577758789062	-0.0	-0.0	-0.0	-0.0	-0.0	-0.0	237963.5	-30918.419921875	-2003.42822265625
0.8270000000000001	-0.0	-0.0	-0.0	-0.0	-0.0	-0.0	0.3823928833007812	-2.584186315536499	-766.6466064453125	-0.0	-0.0	-0.0	-0.0	-0.0	-0.0	237029.546875	-31120.892578125	-1870.7542724609373
0.8275	-0.0	-0.0	-0.0	-0.0	-0.0	-0.0	0.96193128824234	-2.305581569671631	-762.547119140625	-0.0	-0.0	-0.0	-0.0	-0.0	-0.0	235853.90625	-31209.119140625	-1720.415771484375
0.8280000000000001	-0.0	-0.0	-0.0	-0.0	-0.0	-0.0	0.9804753065109252	-2.2173147201538086	-757.7140502929688	-0.0	-0.0	-0.0	-0.0	-0.0	-0.0	234886.890625	-31166.326171875	-1489.29638671875
0.8285	-0.0	-0.0	-0.0	-0.0	-0.0	-0.0	0.7284629940986633	-2.8075995445251465	-756.9237670898438	-0.0	-0.0	-0.0	-0.0	-0.0	-0.0	233560.515625	-31217.087890625	-1627.0081787109375
0.8290000000000001	-0.0	-0.0	-0.0	-0.0	-0.0	-0.0	0.5559231042861938	-2.7933175563812256	-751.5418701171875	-0.0	-0.0	-0.0	-0.0	-0.0	-0.0	232558.796875	-30958.681640625	-1197.9512939453125
